<?xml version="1.0" encoding="utf-8"?>
<svg viewBox="0 0 100 100" xmlns="http://www.w3.org/2000/svg" width="200px" height="200px"
     style="width:100%;height:100%;background-size:initial;background-repeat-y:initial;background-repeat-x:initial;background-position-y:initial;background-position-x:initial;background-origin:initial;background-color:initial;background-clip:initial;background-attachment:initial;animation-play-state:paused"><g class="ldl-scale" style="transform-origin:50% 50%;transform:rotate(0deg) scale(0.8, 0.8);animation-play-state:paused" ><path stroke-miterlimit="10" stroke-linejoin="round" stroke-linecap="round" stroke-width="3" stroke="#333" fill="#abbd81" d="M65.9 26.1c0 8.9-8.1 16.1-8.1 16.1s-8.1-7.2-8.1-16.1S57.8 10 57.8 10s8.1 7.2 8.1 16.1z" style="stroke:rgb(51, 51, 51);fill:rgb(171, 189, 129);animation-play-state:paused" ></path>
<path stroke-miterlimit="10" stroke-linejoin="round" stroke-linecap="round" stroke-width="3" stroke="#333" fill="#abbd81" d="M73.9 50.3c-8.9 0-16.1-8.1-16.1-8.1s7.2-8.1 16.1-8.1S90 42.2 90 42.2s-7.2 8.1-16.1 8.1z" style="stroke:rgb(51, 51, 51);fill:rgb(171, 189, 129);animation-play-state:paused" ></path>
<path stroke-miterlimit="10" stroke-linejoin="round" stroke-linecap="round" stroke-width="3" stroke="#333" fill="#abbd81" d="M74.9 36.6c-6.3 6.3-17.1 5.7-17.1 5.7s-.6-10.8 5.7-17.1 17.1-5.7 17.1-5.7.6 10.8-5.7 17.1z" style="stroke:rgb(51, 51, 51);fill:rgb(171, 189, 129);animation-play-state:paused" ></path>
<g style="animation-play-state:paused" ><path stroke-miterlimit="10" stroke-linejoin="round" stroke-linecap="round" stroke-width="3" stroke="#333" fill="#f47e60" d="M51.3 31.2l17.5 17.5c5.5 5.5 4 14.8-3 18.3L21.7 89.1c-6.9 3.5-14.3-3.9-10.8-10.8L33 34.2c3.5-7 12.8-8.5 18.3-3z" style="stroke:rgb(51, 51, 51);fill:rgb(244, 126, 96);animation-play-state:paused" ></path>
<path d="M30.5 39.2l10.7 10.7" stroke-miterlimit="10" stroke-linejoin="round" stroke-linecap="round" stroke-width="3" stroke="#333" fill="none" style="stroke:rgb(51, 51, 51);animation-play-state:paused" ></path>
<path d="M24.2 51.8l7.5 7.5" stroke-miterlimit="10" stroke-linejoin="round" stroke-linecap="round" stroke-width="3" stroke="#333" fill="none" style="stroke:rgb(51, 51, 51);animation-play-state:paused" ></path>
<path d="M18.2 63.7l4.5 4.6" stroke-miterlimit="10" stroke-linejoin="round" stroke-linecap="round" stroke-width="3" stroke="#333" fill="none" style="stroke:rgb(51, 51, 51);animation-play-state:paused" ></path></g>
<metadata xmlns:d="https://loading.io/stock/" style="animation-play-state:paused" ><d:name style="animation-play-state:paused" >carrot</d:name>


<d:tags style="animation-play-state:paused" >carrot,radish,food,beetroot,parsnip,turnip,rutabaga,kohlrabi,rabbit,root vegetable</d:tags>


<d:license style="animation-play-state:paused" >by</d:license>


<d:slug style="animation-play-state:paused" >3azc7n</d:slug></metadata></g><!-- generated by https://loading.io/ --></svg>