<?xml version="1.0" encoding="utf-8"?>
<svg viewBox="0 0 100 100" xmlns="http://www.w3.org/2000/svg" width="200px" height="200px"
     style="width:100%;height:100%;background-size:initial;background-repeat-y:initial;background-repeat-x:initial;background-position-y:initial;background-position-x:initial;background-origin:initial;background-color:initial;background-clip:initial;background-attachment:initial;animation-play-state:paused"><g class="ldl-scale" style="transform-origin:50% 50%;transform:rotate(0deg) scale(0.8, 0.8);animation-play-state:paused" ><path fill="#333" d="M58.1 32.7c.8-3.9 2.5-8.5 6-11.9.6-.6 1.2-1.1 1.8-1.5-1.3-5.3-5-9.7-6.9-11.7-2.3 2.4-7.4 8.6-7.4 15.6 0 1.3.2 2.5.5 3.7.3.3.6.5.9.8l5.1 5z" style="fill:rgb(255, 255, 255);animation-play-state:paused" ></path>
<path fill="#333" d="M67.3 41.9l5.1 5.1c.3.3.5.6.8.9 1.2.3 2.5.5 3.7.5 7 0 13.1-5.1 15.6-7.4-2-1.9-6.4-5.5-11.7-6.9l-1.5 1.8c-3.5 3.5-8.1 5.2-12 6z" style="fill:rgb(255, 255, 255);animation-play-state:paused" ></path>
<path fill="#333" d="M69.5 20.8c-.5.3-1.1.7-1.6 1.1-.5.4-1 .8-1.5 1.3l-.1.1c-3.5 3.6-4.8 8.6-5.4 12.3l.3.3.4.4.8.8.4.4.8.8.4.4.3.3c3.8-.5 8.8-1.9 12.3-5.4l.1-.1c.5-.5.9-1 1.3-1.5s.8-1 1.1-1.6c2.8-4.7 3.4-10.4 3.4-13.1-2.5.1-8.2.6-13 3.5z" style="fill:rgb(255, 255, 255);animation-play-state:paused" ></path>
<path fill="#333" d="M71.3 50.9l-1.2-1.5-1.3-1.3-5.1-5.1-.5-.5-1.5-1.5-.1-.1-1.2-1.2-1.2-1.2-.2-.1-1.6-1.6-.4-.5-5.1-5.1-1.3-1.2c-.5-.5-.9-.9-1.5-1.2-1.9-1.3-4-2-6.3-2-.6 0-1.2 0-1.8.1-3.5.6-6.5 2.7-8.1 5.9l-2.3 4.5 11 11c.7.7.7 1.7 0 2.4-.3.3-.8.5-1.2.5-.4 0-.9-.2-1.2-.5L29.1 40.5l-5.4 10.8 7.6 7.6c.7.7.7 1.7 0 2.4-.3.3-.8.5-1.2.5-.4 0-.9-.2-1.2-.5l-6.8-6.8L17 64.6l4.2 4.2c.7.7.7 1.7 0 2.4-.3.3-.8.5-1.2.5s-.9-.2-1.2-.5l-3.5-3.5-7 14.1c-1.7 3.5-.4 6.6 1.4 8.4 1.8 1.8 5 3.1 8.4 1.4L67.2 67c3.2-1.6 5.4-4.6 6-8.1.4-2.8-.3-5.7-1.9-8z" style="fill:rgb(255, 255, 255);animation-play-state:paused" ></path>
<metadata xmlns:d="https://loading.io/stock/" style="animation-play-state:paused" ><d:name style="animation-play-state:paused" >carrot</d:name>


<d:tags style="animation-play-state:paused" >carrot,radish,food,beetroot,parsnip,turnip,rutabaga,kohlrabi,rabbit,root vegetable</d:tags>


<d:license style="animation-play-state:paused" >by</d:license>


<d:slug style="animation-play-state:paused" >4awkm8</d:slug></metadata></g><!-- generated by https://loading.io/ --></svg>