<svg viewBox="0 0 400 400" height="400" width="400" xmlns="http://www.w3.org/2000/svg"><g transform="matrix(4,0,0,4,0,0)"><path d="M11.015 50.000 A40.000 40.000 0 1 0 91.015 50.000 A40.000 40.000 0 1 0 11.015 50.000 Z" fill="#e8f4fa" stroke="#daedf7"></path><path d="M8.984 67.214 A16.207 16.207 0 1 0 41.398 67.214 A16.207 16.207 0 1 0 8.984 67.214 Z" fill="#ff6242"></path><path d="M25.192,55.766A16.21,16.21,0,0,1,41.224,69.594a16.207,16.207,0,1,0-32.065,0A16.209,16.209,0,0,1,25.192,55.766Z" fill="#ff866e"></path><path d="M8.984 67.214 A16.207 16.207 0 1 0 41.398 67.214 A16.207 16.207 0 1 0 8.984 67.214 Z" fill="none" stroke="#45413c" stroke-linecap="round" stroke-linejoin="round"></path><path d="M19.628 64.177 A1.823 1.823 0 1 0 23.274 64.177 A1.823 1.823 0 1 0 19.628 64.177 Z" fill="#45413c"></path><path d="M31.971 64.177 A1.823 1.823 0 1 0 35.617 64.177 A1.823 1.823 0 1 0 31.971 64.177 Z" fill="#45413c"></path><path d="M21.917,76.834a5.706,5.706,0,0,1,11.411,0Z" fill="#ffa694" stroke="#45413c" stroke-linecap="round" stroke-linejoin="round"></path><path d="M56.902 64.067 A16.207 16.207 0 1 0 89.316 64.067 A16.207 16.207 0 1 0 56.902 64.067 Z" fill="#ffe500"></path><path d="M73.109,52.619A16.21,16.21,0,0,1,89.141,66.446a16.207,16.207,0,1,0-32.065,0A16.209,16.209,0,0,1,73.109,52.619Z" fill="#fff48c"></path><path d="M56.902 64.067 A16.207 16.207 0 1 0 89.316 64.067 A16.207 16.207 0 1 0 56.902 64.067 Z" fill="none" stroke="#45413c" stroke-linecap="round" stroke-linejoin="round"></path><path d="M75.026 61.029 A1.823 1.823 0 1 0 78.672 61.029 A1.823 1.823 0 1 0 75.026 61.029 Z" fill="#45413c"></path><path d="M62.683 61.029 A1.823 1.823 0 1 0 66.329 61.029 A1.823 1.823 0 1 0 62.683 61.029 Z" fill="#45413c"></path><path d="M76.383,67.981a5.706,5.706,0,1,1-11.411,0Z" fill="#ffa694" stroke="#45413c" stroke-linecap="round" stroke-linejoin="round"></path><path d="M39.585,42.157,33.05,48.692a1.517,1.517,0,0,1-2.589-1.072V42.157H23.679a3.649,3.649,0,0,1-3.649-3.649V19.65A3.649,3.649,0,0,1,23.679,16H51.115a3.65,3.65,0,0,1,3.649,3.65V38.508a3.649,3.649,0,0,1-3.649,3.649Z" fill="#ffffff" stroke="#45413c" stroke-linecap="round" stroke-linejoin="round"></path><path d="M45.128,34.628a1.216,1.216,0,0,0,0-1.718l-3.436-3.436a.606.606,0,0,1,0-.859l3.436-3.436a1.216,1.216,0,0,0,0-1.718L42.98,21.313a1.216,1.216,0,0,0-1.718,0l-3.436,3.436a.606.606,0,0,1-.859,0l-3.436-3.436a1.216,1.216,0,0,0-1.718,0l-2.147,2.148a1.216,1.216,0,0,0,0,1.718L33.1,28.615a.608.608,0,0,1,0,.859L29.666,32.91a1.216,1.216,0,0,0,0,1.718l2.147,2.147a1.216,1.216,0,0,0,1.718,0l3.436-3.436a.608.608,0,0,1,.859,0l3.436,3.436a1.216,1.216,0,0,0,1.718,0Z" fill="#ff6242" stroke="#e04122" stroke-linecap="round" stroke-linejoin="round"></path><path d="M57.786,39.05l6.477,6.477a1.5,1.5,0,0,0,2.565-1.063V39.05h11.5a3.616,3.616,0,0,0,3.616-3.617V16.744a3.616,3.616,0,0,0-3.616-3.617H51.135a3.617,3.617,0,0,0-3.617,3.617V35.433a3.617,3.617,0,0,0,3.617,3.617Z" fill="#ffffff" stroke="#45413c" stroke-linecap="round" stroke-linejoin="round"></path><path d="M74.325,22.793a1.474,1.474,0,0,0,.2-2.074l-1.638-1.991a1.474,1.474,0,0,0-2.074-.2l-9.385,7.722L59.323,23.69a1.473,1.473,0,0,0-2.073-.2l-1.991,1.638a1.474,1.474,0,0,0-.2,2.074l2.107,2.56,2.574,3.128a1.473,1.473,0,0,0,2.073.2l3.129-2.574Z" fill="#6dd627" stroke="#46b000" stroke-linecap="round" stroke-linejoin="round"></path></g></svg>