<svg viewBox="0 0 400 400" height="400" width="400" xmlns="http://www.w3.org/2000/svg"><g transform="matrix(4,0,0,4,0,0)"><path d="M10.000 50.638 A40.000 40.000 0 1 0 90.000 50.638 A40.000 40.000 0 1 0 10.000 50.638 Z" fill="#e8f4fa" stroke="#daedf7"></path><path d="M38.239 82.226 A11 1.5 0 1 0 60.239 82.226 A11 1.5 0 1 0 38.239 82.226 Z" fill="#45413c" opacity=".15"></path><path d="M34.258,73.108h2.684a1.342,1.342,0,0,0,1.342-1.342V56.332a1.342,1.342,0,0,0-1.342-1.342H34.258Z" fill="#ffffff" stroke="#45413c" stroke-linecap="round" stroke-linejoin="round"></path><path d="M53.718,52.977c.5-5.013,1.164-15.769-3.02-15.769a3.02,3.02,0,0,0-3.02,3.02v1.006c0,7.382-3.2,15.1-9.394,15.1l-.006,15.434h.792c3.87,0,5.7,2.684,12.634,2.684H63.447a2.684,2.684,0,0,0,0-5.368h1.342a2.684,2.684,0,1,0,0-5.368h1.342a2.685,2.685,0,1,0,0-5.369h1.343a2.684,2.684,0,0,0,0-5.368Z" fill="#d18660"></path><path d="M67.474,52.977H51.7a2.684,2.684,0,0,0,2.685,2.684H70.158A2.684,2.684,0,0,0,67.474,52.977Z" fill="#e09f7e"></path><path d="M53.392,39.977A3.02,3.02,0,0,0,50.279,43V44c0,7.381-3.2,15.1-9.4,15.1h-2.6V56.332c6.193,0,9.394-7.716,9.394-15.1V40.228a3.02,3.02,0,0,1,3.02-3.02C52.038,37.208,52.881,38.312,53.392,39.977Z" fill="#e09f7e"></path><path d="M51.033 52.977L53.718 52.977" fill="none" stroke="#45413c" stroke-linecap="round" stroke-linejoin="round"></path><path d="M63.447 69.082L62.105 69.082" fill="none" stroke="#45413c" stroke-linecap="round" stroke-linejoin="round"></path><path d="M64.789 63.714L63.447 63.714" fill="none" stroke="#45413c" stroke-linecap="round" stroke-linejoin="round"></path><path d="M66.131 58.345L64.789 58.345" fill="none" stroke="#45413c" stroke-linecap="round" stroke-linejoin="round"></path><path d="M53.718,52.977c.5-5.013,1.164-15.769-3.02-15.769a3.02,3.02,0,0,0-3.02,3.02v1.006c0,7.382-3.2,15.1-9.394,15.1l-.006,15.434h.792c3.87,0,5.7,2.684,12.634,2.684H63.447a2.684,2.684,0,0,0,0-5.368h1.342a2.684,2.684,0,1,0,0-5.368h1.342a2.685,2.685,0,1,0,0-5.369h1.343a2.684,2.684,0,0,0,0-5.368Z" fill="none" stroke="#45413c" stroke-linecap="round" stroke-linejoin="round"></path><path d="M24.864 53.648 L34.258 53.648 L34.258 74.450 L24.864 74.450 Z" fill="#009fd9"></path><path d="M24.864,57V55.112a1.464,1.464,0,0,1,1.463-1.464h6.467a1.464,1.464,0,0,1,1.464,1.464V57Z" fill="#00b8f0"></path><path d="M24.864 53.648 L34.258 53.648 L34.258 74.450 L24.864 74.450 Z" fill="none" stroke="#45413c" stroke-linecap="round" stroke-linejoin="round"></path><path d="M51.162,9.995l2.054,4.162a1.135,1.135,0,0,0,.855.621l4.594.668a1.135,1.135,0,0,1,.629,1.936l-3.324,3.24a1.136,1.136,0,0,0-.327,1l.785,4.575a1.135,1.135,0,0,1-1.647,1.2l-4.109-2.16a1.133,1.133,0,0,0-1.056,0L45.507,27.4a1.135,1.135,0,0,1-1.647-1.2l.784-4.575a1.132,1.132,0,0,0-.326-1l-3.324-3.24a1.135,1.135,0,0,1,.629-1.936l4.594-.668a1.135,1.135,0,0,0,.855-.621l2.054-4.162A1.135,1.135,0,0,1,51.162,9.995Z" fill="#ffe500"></path><path d="M44,25.385l.644-3.758a1.132,1.132,0,0,0-.326-1l-3.324-3.24a1.135,1.135,0,0,1,.629-1.936l4.594-.668a1.135,1.135,0,0,0,.855-.621l2.054-4.162a1.135,1.135,0,0,1,2.036,0l2.054,4.162a1.135,1.135,0,0,0,.855.621Z" fill="#fff48c"></path><path d="M51.162,9.995l2.054,4.162a1.135,1.135,0,0,0,.855.621l4.594.668a1.135,1.135,0,0,1,.629,1.936l-3.324,3.24a1.136,1.136,0,0,0-.327,1l.785,4.575a1.135,1.135,0,0,1-1.647,1.2l-4.109-2.16a1.133,1.133,0,0,0-1.056,0L45.507,27.4a1.135,1.135,0,0,1-1.647-1.2l.784-4.575a1.132,1.132,0,0,0-.326-1l-3.324-3.24a1.135,1.135,0,0,1,.629-1.936l4.594-.668a1.135,1.135,0,0,0,.855-.621l2.054-4.162A1.135,1.135,0,0,1,51.162,9.995Z" fill="none" stroke="#45413c" stroke-linecap="round" stroke-linejoin="round"></path><path d="M27.471,18.977l3.246,2.045a.941.941,0,0,0,.871.068l3.526-1.515a.938.938,0,0,1,1.28,1.092l-.942,3.72a.941.941,0,0,0,.2.85l2.531,2.885a.938.938,0,0,1-.644,1.555l-3.829.254a.936.936,0,0,0-.744.457l-1.962,3.3a.938.938,0,0,1-1.678-.131L27.905,29.99a.941.941,0,0,0-.664-.567L23.5,28.577a.939.939,0,0,1-.394-1.636l2.949-2.457a.936.936,0,0,0,.334-.807l-.351-3.821A.938.938,0,0,1,27.471,18.977Z" fill="#ffe500"></path><path d="M29.075,32.917l-1.17-2.927a.941.941,0,0,0-.664-.567L23.5,28.577a.939.939,0,0,1-.394-1.636l2.949-2.457a.936.936,0,0,0,.334-.807l-.351-3.821a.938.938,0,0,1,1.435-.879l3.246,2.045a.941.941,0,0,0,.871.068Z" fill="#fff48c"></path><path d="M27.471,18.977l3.246,2.045a.941.941,0,0,0,.871.068l3.526-1.515a.938.938,0,0,1,1.28,1.092l-.942,3.72a.941.941,0,0,0,.2.85l2.531,2.885a.938.938,0,0,1-.644,1.555l-3.829.254a.936.936,0,0,0-.744.457l-1.962,3.3a.938.938,0,0,1-1.678-.131L27.905,29.99a.941.941,0,0,0-.664-.567L23.5,28.577a.939.939,0,0,1-.394-1.636l2.949-2.457a.936.936,0,0,0,.334-.807l-.351-3.821A.938.938,0,0,1,27.471,18.977Z" fill="none" stroke="#45413c" stroke-linecap="round" stroke-linejoin="round"></path><path d="M14.771,37.649l2.94.15a.718.718,0,0,0,.608-.281l1.791-2.337a.72.72,0,0,1,1.267.25l.766,2.843a.722.722,0,0,0,.455.492l2.776.98a.72.72,0,0,1,.153,1.283l-2.466,1.607a.717.717,0,0,0-.327.585l-.075,2.943a.72.72,0,0,1-1.172.542L19.2,44.856a.72.72,0,0,0-.657-.13l-2.822.838a.72.72,0,0,1-.878-.947l1.051-2.75a.719.719,0,0,0-.079-.665l-1.669-2.425A.72.72,0,0,1,14.771,37.649Z" fill="#ffe500"></path><path d="M21.078,46.375,19.2,44.856a.72.72,0,0,0-.657-.13l-2.822.838a.72.72,0,0,1-.878-.947l1.051-2.75a.719.719,0,0,0-.079-.665l-1.669-2.425a.72.72,0,0,1,.629-1.128l2.94.15a.718.718,0,0,0,.608-.281Z" fill="#fff48c"></path><path d="M14.771,37.649l2.94.15a.718.718,0,0,0,.608-.281l1.791-2.337a.72.72,0,0,1,1.267.25l.766,2.843a.722.722,0,0,0,.455.492l2.776.98a.72.72,0,0,1,.153,1.283l-2.466,1.607a.717.717,0,0,0-.327.585l-.075,2.943a.72.72,0,0,1-1.172.542L19.2,44.856a.72.72,0,0,0-.657-.13l-2.822.838a.72.72,0,0,1-.878-.947l1.051-2.75a.719.719,0,0,0-.079-.665l-1.669-2.425A.72.72,0,0,1,14.771,37.649Z" fill="none" stroke="#45413c" stroke-linecap="round" stroke-linejoin="round"></path><path d="M74.606,19.856a.938.938,0,0,0-1.435-.879l-3.246,2.045a.941.941,0,0,1-.871.068l-3.526-1.515a.938.938,0,0,0-1.28,1.092l.942,3.72a.944.944,0,0,1-.2.85l-2.531,2.885a.938.938,0,0,0,.644,1.555l3.828.254a.936.936,0,0,1,.745.457l1.962,3.3a.938.938,0,0,0,1.678-.131l1.425-3.564a.941.941,0,0,1,.664-.567l3.743-.846a.938.938,0,0,0,.393-1.636l-2.948-2.457a.934.934,0,0,1-.334-.807Z" fill="#ffe500"></path><path d="M62.907,27.606l2.078-2.369a.938.938,0,0,0,.2-.85l-.942-3.72a.938.938,0,0,1,1.28-1.092l3.526,1.514a.935.935,0,0,0,.871-.068l3.247-2.045a.938.938,0,0,1,1.434.88l-.351,3.821a.936.936,0,0,0,.334.807Z" fill="#fff48c"></path><path d="M74.606,19.856a.938.938,0,0,0-1.435-.879l-3.246,2.045a.941.941,0,0,1-.871.068l-3.527-1.515a.937.937,0,0,0-1.279,1.092l.942,3.72a.944.944,0,0,1-.2.85l-2.531,2.885a.938.938,0,0,0,.644,1.555l3.828.254a.936.936,0,0,1,.745.457l1.962,3.3a.938.938,0,0,0,1.678-.131l1.425-3.564a.941.941,0,0,1,.664-.567l3.743-.846a.938.938,0,0,0,.393-1.636l-2.948-2.457a.934.934,0,0,1-.334-.807Z" fill="none" stroke="#45413c" stroke-linecap="round" stroke-linejoin="round"></path><path d="M86.5,38.777a.72.72,0,0,0-.63-1.128l-2.939.15a.721.721,0,0,1-.609-.281l-1.79-2.337a.72.72,0,0,0-1.267.25L78.5,38.274a.722.722,0,0,1-.455.492l-2.777.98a.721.721,0,0,0-.153,1.283l2.467,1.607a.722.722,0,0,1,.327.585l.074,2.943a.72.72,0,0,0,1.172.542l2.291-1.85a.722.722,0,0,1,.658-.13l2.822.838a.719.719,0,0,0,.877-.947l-1.05-2.75a.714.714,0,0,1,.079-.665Z" fill="#ffe500"></path><path d="M75.763,39.571l2.28-.806a.717.717,0,0,0,.456-.491l.766-2.843a.72.72,0,0,1,1.266-.251l1.791,2.338a.719.719,0,0,0,.608.281l2.94-.15a.721.721,0,0,1,.63,1.128L84.831,41.2a.719.719,0,0,0-.08.666Z" fill="#fff48c"></path><path d="M86.5,38.777a.72.72,0,0,0-.63-1.128l-2.939.15a.721.721,0,0,1-.609-.281l-1.791-2.337a.719.719,0,0,0-1.266.25L78.5,38.274a.722.722,0,0,1-.455.492l-2.777.98a.721.721,0,0,0-.153,1.283l2.467,1.607a.722.722,0,0,1,.327.585l.074,2.943a.72.72,0,0,0,1.172.542l2.291-1.85a.722.722,0,0,1,.658-.13l2.822.839a.72.72,0,0,0,.877-.947l-1.05-2.751a.714.714,0,0,1,.079-.665Z" fill="none" stroke="#45413c" stroke-linecap="round" stroke-linejoin="round"></path></g></svg>