<?xml version="1.0" encoding="utf-8"?>
<svg viewBox="0 0 100 100" xmlns="http://www.w3.org/2000/svg" width="200px" height="200px"
     style="width:100%;height:100%;background-size:initial;background-repeat-y:initial;background-repeat-x:initial;background-position-y:initial;background-position-x:initial;background-origin:initial;background-color:initial;background-clip:initial;background-attachment:initial;animation-play-state:paused"><g class="ldl-scale" style="transform-origin:50% 50%;transform:rotate(0deg) scale(0.8, 0.8);animation-play-state:paused" ><path stroke-miterlimit="10" stroke-linejoin="round" stroke-linecap="round" stroke-width="3" stroke="#333" fill="#e0e0e0" d="M67.9 77.6c-1-5.6-4.4-9.8-6.1-15-1.6-4.8-2-9.8-1.4-14.8.6-4.9-3.3-9.1-8.2-9.1h-4.5c-4.9 0-8.8 4.3-8.2 9.1.6 5 .2 10-1.4 14.8-1.7 5.2-5.1 9.4-6.1 15-.8 4.6.3 8.3 3.7 11.4.6.6 1.3 1.1 2 1.6s1.5.9 2.3 1.3c.4.2.8.4 1.2.5 2.2.9 4.4 1.4 6.6 1.6.7.1 1.5.1 2.2.1.7 0 1.5 0 2.2-.1 2.2-.2 4.4-.7 6.6-1.6.4-.2.8-.3 1.2-.5.8-.4 1.5-.8 2.3-1.3.7-.5 1.4-1 2-1.6 3.3-3.2 4.4-6.8 3.6-11.4z" style="stroke:rgb(51, 51, 51);fill:rgb(255, 193, 7);animation-play-state:paused" ></path>
<g style="animation-play-state:paused" ><path stroke-miterlimit="10" stroke-linejoin="round" stroke-linecap="round" stroke-width="3" stroke="#333" fill="#c33737" d="M81.1 56.4H18.9c-5.8 0-10.5-4.7-10.5-10.5v0c0-20.3 16.5-36.7 36.7-36.7h9.7c20.3 0 36.7 16.5 36.7 36.7v0c.1 5.8-4.6 10.5-10.4 10.5z" style="stroke:rgb(51, 51, 51);fill:rgb(195, 55, 55);animation-play-state:paused" ></path>
<ellipse stroke-miterlimit="10" stroke-linejoin="round" stroke-linecap="round" stroke-width="3" stroke="#333" fill="#e0e0e0" ry="9.7" rx="10.9" cy="35.1" cx="41" transform="matrix(.998 -.06263 .06263 .998 -2.12 2.635)" style="stroke:rgb(51, 51, 51);fill:rgb(255, 193, 7);animation-play-state:paused" ></ellipse>
<path stroke-miterlimit="10" stroke-linejoin="round" stroke-linecap="round" stroke-width="3" stroke="#333" fill="#e0e0e0" d="M68.4 28.1c6.7 2.9 13.8 2.5 18.1-.7-6-10.2-16.7-17.3-29.2-18.2-2.5 6.7 2.3 15 11.1 18.9z" style="stroke:rgb(51, 51, 51);fill:rgb(255, 193, 7);animation-play-state:paused" ></path>
<path stroke-miterlimit="10" stroke-linejoin="round" stroke-linecap="round" stroke-width="3" stroke="#333" fill="#e0e0e0" d="M25.2 25.1c5.1-3.9 7.8-9 6-11.3-.5-.6-1.2-.9-2.1-1.1-6.9 3.3-12.6 8.8-16.3 15.4 2 2.2 7.4.9 12.4-3z" style="stroke:rgb(51, 51, 51);fill:rgb(255, 193, 7);animation-play-state:paused" ></path>
<ellipse stroke-miterlimit="10" stroke-linejoin="round" stroke-linecap="round" stroke-width="3" stroke="#333" fill="#e0e0e0" ry="7.1" rx="5.3" cy="44.2" cx="73.8" transform="rotate(-57.866 73.76 44.24)" style="stroke:rgb(51, 51, 51);fill:rgb(255, 193, 7);animation-play-state:paused" ></ellipse>
<path stroke-miterlimit="10" stroke-linejoin="round" stroke-linecap="round" stroke-width="3" stroke="#333" fill="#e0e0e0" d="M28.4 56.4c0-.9-.2-1.9-.5-2.9-1.3-3.9-4.9-6.2-8-5.2-2.8.9-4.2 4.3-3.5 7.8.8.2 1.6.3 2.5.3h9.5z" style="stroke:rgb(51, 51, 51);fill:rgb(255, 193, 7);animation-play-state:paused" ></path></g>
<metadata xmlns:d="https://loading.io/stock/" style="animation-play-state:paused" ><d:name style="animation-play-state:paused" >mushroom</d:name>


<d:tags style="animation-play-state:paused" >mushroom,plant,food,poison</d:tags>


<d:license style="animation-play-state:paused" >by</d:license>


<d:slug style="animation-play-state:paused" >9uf0oo</d:slug></metadata></g><!-- generated by https://loading.io/ --></svg>