<?xml version="1.0" standalone="no"?>
<!DOCTYPE svg PUBLIC "-//W3C//DTD SVG 20010904//EN"
 "http://www.w3.org/TR/2001/REC-SVG-20010904/DTD/svg10.dtd">
<svg version="1.0" xmlns="http://www.w3.org/2000/svg"
 width="4879.000000pt" height="3253.000000pt" viewBox="0 0 4879.000000 3253.000000"
 preserveAspectRatio="xMidYMid meet">

<g transform="translate(0.000000,3253.000000) scale(0.100000,-0.100000)"
fill="#000000" stroke="none">
<path d="M0 16265 l0 -16265 24395 0 24395 0 0 16265 0 16265 -24395 0 -24395
0 0 -16265z m31305 13073 c27 -25 33 -37 25 -48 -9 -13 -11 -13 -20 0 -5 8
-10 11 -10 7 0 -4 -10 2 -22 13 -13 12 -35 24 -50 27 -36 7 -25 33 13 33 19 0
41 -11 64 -32z m4190 -900 c30 -13 33 -28 5 -28 -10 0 -24 9 -30 20 -12 23
-10 24 25 8z m1310 -418 c3 -6 -5 -10 -19 -10 -14 0 -31 -8 -38 -17 -7 -10
-26 -25 -43 -33 -16 -8 -36 -21 -44 -28 -27 -26 -62 -45 -69 -38 -4 4 5 18 21
31 15 13 27 28 27 33 0 13 72 59 101 65 43 8 58 7 64 -3z m-6001 -455 c9 -13
16 -35 16 -47 0 -13 9 -29 20 -36 11 -7 20 -18 20 -25 0 -16 -34 -37 -46 -29
-13 9 -54 143 -48 154 9 14 21 9 38 -17z m-489 -1180 c39 -30 91 -102 81 -112
-7 -7 -125 114 -126 130 0 12 10 8 45 -18z m8824 -746 c29 -15 71 -25 120 -29
114 -9 166 -44 69 -46 -62 -1 -113 -8 -187 -23 -29 -6 -56 -9 -61 -6 -4 2 -21
-1 -39 -8 -27 -10 -33 -9 -41 3 -7 10 -10 11 -10 3 0 -7 -9 -13 -20 -13 -11 0
-20 5 -20 10 0 6 -5 10 -11 10 -6 0 -9 -6 -6 -14 4 -11 -9 -16 -55 -21 -33 -4
-72 -13 -86 -21 -15 -8 -38 -14 -52 -14 -18 0 -3 12 53 40 165 85 207 126 207
201 l0 43 48 -46 c26 -26 67 -57 91 -69z m-447 -265 c-6 -30 -17 -36 -46 -24
-30 11 -27 26 8 40 29 12 42 6 38 -16z m1078 -698 c-17 -45 -12 -57 36 -102
l46 -42 -44 -26 c-59 -34 -125 -57 -145 -49 -9 4 -14 2 -11 -3 4 -5 -4 -10
-15 -11 -12 -1 -48 -5 -81 -9 -56 -6 -58 -6 -47 14 6 11 26 28 43 38 18 9 50
26 70 36 43 23 98 81 98 105 0 17 49 87 56 80 3 -2 0 -16 -6 -31z m143 -217
c57 -15 44 -27 -28 -23 -72 3 -95 11 -74 25 19 12 56 11 102 -2z m377 -559
c22 -11 55 -20 75 -20 63 0 37 -18 -32 -22 -60 -4 -70 -2 -90 18 -16 16 -19
24 -10 33 14 14 11 14 57 -9z m70 -120 c0 -5 -7 -10 -16 -10 -8 0 -12 5 -9 10
3 6 10 10 16 10 5 0 9 -4 9 -10z m-170 -935 c0 -11 31 -25 90 -43 l35 -10 -35
-2 c-54 -4 -75 -7 -104 -14 -19 -5 -26 -3 -21 4 5 8 -3 10 -25 8 -17 -2 -35
-10 -39 -17 -6 -9 -12 -4 -22 18 -8 17 -17 31 -21 31 -5 0 -8 5 -8 11 0 8 13
9 41 5 55 -9 66 2 29 29 -20 15 -26 25 -18 27 17 6 98 -33 98 -47z m-21063
-1128 c3 -4 -16 -7 -43 -7 -27 0 -60 -3 -74 -7 -21 -6 -23 -4 -13 8 13 16 116
20 130 6z m8433 -1718 c0 -6 -4 -7 -10 -4 -5 3 -10 11 -10 16 0 6 5 7 10 4 6
-3 10 -11 10 -16z m24 -41 c10 -39 7 -70 -6 -66 -15 5 -24 88 -10 88 5 0 12
-10 16 -22z m1921 -1098 c3 -5 1 -10 -4 -10 -6 0 -11 5 -11 10 0 6 2 10 4 10
3 0 8 -4 11 -10z m7285 -220 c0 -5 -9 -14 -20 -20 -16 -8 -20 -8 -20 4 0 13
13 23 33 25 4 1 7 -3 7 -9z m-130 -115 c0 -8 -4 -15 -10 -15 -5 0 -19 -9 -30
-20 -11 -11 -26 -20 -34 -20 -8 0 -18 -9 -21 -20 -6 -18 -35 -29 -35 -14 0 15
99 95 128 103 1 1 2 -6 2 -14z m-3703 -132 c-3 -10 -5 -4 -5 12 0 17 2 24 5
18 2 -7 2 -21 0 -30z m343 -55 c0 -10 -7 -18 -15 -18 -11 0 -15 11 -15 37 0
35 1 36 15 17 8 -10 15 -27 15 -36z m566 -62 c29 -30 7 -126 -25 -107 -10 6
-10 10 -2 16 9 5 9 10 1 20 -8 10 -8 19 2 36 10 17 10 23 1 26 -16 6 -17 23
-2 23 6 0 17 -6 25 -14z m348 -98 c-4 -24 -12 -48 -19 -53 -9 -8 -9 -15 -1
-28 8 -13 8 -19 0 -25 -7 -4 -14 -16 -17 -27 -4 -11 -5 -2 -3 19 2 30 -2 40
-16 43 -20 6 -35 42 -21 52 5 3 12 14 16 24 3 9 13 17 22 17 8 0 15 5 15 10 0
6 7 10 15 10 12 0 14 -8 9 -42z m336 -50 c0 -7 -7 -26 -15 -42 -8 -15 -15 -32
-15 -38 0 -5 -9 -19 -20 -31 -12 -12 -16 -23 -10 -25 14 -5 13 -39 -2 -45 -16
-5 -58 13 -58 25 0 4 9 8 20 8 21 0 27 15 10 25 -5 3 -10 13 -10 21 0 8 4 13
9 10 12 -8 34 21 27 33 -4 6 2 15 13 20 11 6 23 20 26 31 7 22 25 27 25 8z
m-406 -63 c-4 -8 -8 -15 -10 -15 -2 0 -4 7 -4 15 0 8 4 15 10 15 5 0 7 -7 4
-15z m602 -156 c-3 -17 -6 -38 -6 -45 0 -8 -6 -14 -12 -14 -14 0 -16 58 -4 78
15 24 28 12 22 -19z m244 -103 c0 -8 -7 -21 -15 -30 -8 -8 -15 -26 -15 -40 0
-23 -9 -31 -33 -27 -5 1 -6 -3 -3 -8 4 -5 2 -12 -4 -16 -6 -4 -10 7 -10 25 0
23 5 33 20 37 11 3 20 12 20 20 0 20 19 53 30 53 6 0 10 -6 10 -14z m-1370 -6
c0 -5 -5 -10 -11 -10 -5 0 -7 5 -4 10 3 6 8 10 11 10 2 0 4 -4 4 -10z m290
-94 c0 -7 -13 -28 -30 -46 l-30 -34 0 27 c0 21 5 27 21 27 11 0 17 4 14 10 -9
15 3 43 15 35 5 -3 10 -12 10 -19z m1327 -4 c-10 -10 -17 -23 -17 -29 0 -5
-11 -15 -25 -21 -14 -6 -25 -18 -25 -27 0 -18 -26 -20 -34 -2 -3 6 -4 -2 -2
-20 3 -20 -1 -33 -10 -37 -18 -7 -23 3 -17 42 5 29 13 37 36 33 5 -1 6 3 2 8
-3 6 16 24 42 41 55 34 74 38 50 12z m-1017 -48 c0 -2 -14 -18 -31 -36 l-30
-33 16 36 c10 20 23 36 31 36 8 0 14 -2 14 -3z m-55 -83 c3 -5 1 -12 -5 -16
-5 -3 -10 1 -10 9 0 18 6 21 15 7z m278 -71 c-3 -11 -9 -18 -13 -15 -5 3 -6
14 -3 25 3 11 9 18 13 15 5 -3 6 -14 3 -25z m915 -12 c-6 -18 -28 -21 -28 -4
0 9 7 16 16 16 9 0 14 -5 12 -12z m-951 -51 c-11 -25 -27 -36 -27 -19 0 11 31
54 36 49 2 -2 -2 -15 -9 -30z m878 -13 c-22 -23 -28 -12 -7 14 9 12 18 17 20
12 2 -6 -4 -17 -13 -26z m-1845 -70 c0 -8 -5 -12 -10 -9 -6 4 -8 11 -5 16 9
14 15 11 15 -7z m-2500 -22 c0 -5 -7 -9 -15 -9 -8 0 -12 4 -9 9 3 4 9 8 15 8
5 0 9 -4 9 -8z m4523 -31 c-3 -9 -14 -25 -23 -36 -9 -11 -20 -28 -23 -37 -4
-10 -11 -18 -16 -18 -17 0 -29 34 -21 56 11 30 73 76 81 62 4 -6 5 -18 2 -27z
m-1553 -85 c0 -11 -19 -15 -25 -6 -3 5 1 10 9 10 9 0 16 -2 16 -4z m16 -45
c-4 -5 0 -12 6 -14 8 -3 6 -6 -4 -6 -10 -1 -18 6 -18 14 0 8 5 15 11 15 5 0 8
-4 5 -9z m835 -24 c-8 -8 -11 -7 -11 4 0 20 13 34 18 19 3 -7 -1 -17 -7 -23z
m236 -29 c-3 -8 -6 -5 -6 6 -1 11 2 17 5 13 3 -3 4 -12 1 -19z m-2157 -4 c0
-8 -5 -12 -10 -9 -6 4 -8 11 -5 16 9 14 15 11 15 -7z m2117 -16 c-3 -8 -6 -5
-6 6 -1 11 2 17 5 13 3 -3 4 -12 1 -19z m-19 -44 c-4 -11 -28 -14 -28 -4 0 8
22 20 28 14 2 -1 2 -6 0 -10z m-4258 -34 c0 -5 -7 -10 -15 -10 -8 0 -15 5 -15
10 0 6 7 10 15 10 8 0 15 -4 15 -10z m4423 -75 c-7 -21 -13 -19 -13 6 0 11 4
18 10 14 5 -3 7 -12 3 -20z m457 -31 c0 -8 -5 -12 -10 -9 -6 4 -8 11 -5 16 9
14 15 11 15 -7z m-360 -174 c-6 -10 -15 -22 -20 -25 -6 -4 -8 -10 -5 -15 3 -4
-2 -10 -10 -14 -20 -7 -27 8 -16 37 10 26 40 49 53 41 5 -3 4 -14 -2 -24z m7
-197 c-15 -16 -17 -16 -17 -1 0 9 6 18 13 21 20 7 22 -2 4 -20z m-3631 2 c-8
-8 -19 -15 -24 -15 -6 0 -12 -6 -15 -12 -2 -7 -7 -11 -9 -8 -3 3 -2 15 3 28 6
15 17 22 34 22 24 0 25 -2 11 -15z m24 -25 c0 -11 -2 -20 -4 -20 -2 0 -6 9 -9
20 -3 11 -1 20 4 20 5 0 9 -9 9 -20z m3577 -12 c-3 -8 -6 -5 -6 6 -1 11 2 17
5 13 3 -3 4 -12 1 -19z m-1240 -5792 c3 -3 16 -6 27 -6 28 0 74 -32 69 -47 -3
-7 3 -13 12 -13 14 0 15 -3 6 -14 -9 -11 -8 -15 5 -20 9 -3 20 -4 24 -1 5 3
11 -4 15 -15 4 -11 12 -20 18 -19 26 3 37 -2 37 -16 0 -8 7 -15 15 -15 9 0 15
-9 15 -22 0 -20 -1 -20 -18 -5 -22 20 -43 22 -39 5 1 -9 -14 -13 -53 -13 -44
0 -66 7 -105 31 -28 17 -54 40 -60 52 -5 12 -13 22 -17 22 -5 0 -8 8 -8 18 0
10 -7 28 -15 40 -13 18 -14 24 -3 36 13 13 62 15 75 2z"/>
<path d="M39020 25656 c0 -8 -3 -21 -6 -30 -8 -22 13 -20 25 2 6 12 5 21 -5
30 -12 10 -14 10 -14 -2z"/>
</g>
</svg>
