<svg viewBox="0 0 400 400" height="400" width="400" xmlns="http://www.w3.org/2000/svg"><g transform="matrix(4,0,0,4,0,0)"><path d="M9.900 53.356 A40.000 40.000 0 1 0 89.900 53.356 A40.000 40.000 0 1 0 9.900 53.356 Z" fill="#e8f4fa" stroke="#daedf7"></path><path d="M9.518 84.088 A39.151 1.575 0 1 0 87.820 84.088 A39.151 1.575 0 1 0 9.518 84.088 Z" fill="#45413c" opacity=".15"></path><path d="M57.274,76.8c-2.758,0-6.139,9.6-15.847,5.591-4.606-1.9-13.518,3.836-16.92-1.7-.2-.326-.438-.745-.438-.745,7.384.7,5.481-5.3,14.131-3.444a3.083,3.083,0,0,0,2.6-.688,3.184,3.184,0,0,0,1.145-2.429,3.411,3.411,0,0,0-3.408-3.425h-1.67A11.2,11.2,0,0,1,25.678,58.773,10.933,10.933,0,0,1,29.046,50.9a3.257,3.257,0,0,0,.893-3.219c-.363-1.324-.294-8.154,3.624-8.154l1.391,5.241c1.057,3.863,2.25,8.881-.645,11.645a3.273,3.273,0,0,0-1.01,2.358,3.568,3.568,0,0,0,3.564,3.564,5.094,5.094,0,0,0,5.094-5.094V35.615a15.319,15.319,0,0,1,30.637,0V57.243a5.1,5.1,0,0,0,5.095,5.094,3.568,3.568,0,0,0,3.563-3.564,3.276,3.276,0,0,0-1.009-2.358c-2.9-2.764-1.7-7.782-.645-11.645l1.39-5.241c3.918,0,3.987,6.83,3.625,8.154a3.255,3.255,0,0,0,.893,3.219,10.933,10.933,0,0,1,3.368,7.871A11.2,11.2,0,0,1,77.689,69.958h-1.67a3.409,3.409,0,0,0-3.408,3.425,3.181,3.181,0,0,0,1.145,2.429,3.081,3.081,0,0,0,2.595.688C85,74.646,83.1,80.641,90.482,79.944c0,0-.238.419-.438.745-3.4,5.538-12.314-.2-16.92,1.7C63.416,86.4,60.035,76.8,57.278,76.8Z" fill="#00b8f0"></path><path d="M57.276,24.119A15.318,15.318,0,0,1,72.594,39.438V35.615a15.319,15.319,0,1,0-30.637,0v3.823A15.319,15.319,0,0,1,57.276,24.119Z" fill="#4acfff"></path><path d="M57.274,76.8c-2.758,0-6.139,9.6-15.847,5.591-4.606-1.9-13.518,3.836-16.92-1.7-.2-.326-.438-.745-.438-.745,5.156,3.577,8.806-2.308,17.57-.588,12.445,2.443,7.66-4.8,15.643-2.556" fill="#b8ecff" stroke="#45413c" stroke-linecap="round" stroke-linejoin="round"></path><path d="M72.917,79.356c-12.445,2.443-7.66-4.8-15.643-2.556h0c2.757,0,6.138,9.6,15.846,5.591,4.606-1.9,13.519,3.837,16.92-1.7.2-.326.438-.745.438-.745C85.306,83.577,81.7,77.632,72.917,79.356Z" fill="#b8ecff" stroke="#45413c" stroke-linecap="round" stroke-linejoin="round"></path><path d="M57.274,76.8c-2.758,0-6.139,9.6-15.847,5.591-4.606-1.9-13.518,3.836-16.92-1.7-.2-.326-.438-.745-.438-.745,7.384.7,5.481-5.3,14.131-3.444a3.083,3.083,0,0,0,2.6-.688,3.184,3.184,0,0,0,1.145-2.429,3.411,3.411,0,0,0-3.408-3.425h-1.67A11.2,11.2,0,0,1,25.678,58.773,10.933,10.933,0,0,1,29.046,50.9a3.257,3.257,0,0,0,.893-3.219c-.363-1.324-.294-8.154,3.624-8.154l1.391,5.241c1.057,3.863,2.25,8.881-.645,11.645a3.273,3.273,0,0,0-1.01,2.358,3.568,3.568,0,0,0,3.564,3.564,5.094,5.094,0,0,0,5.094-5.094V35.615a15.319,15.319,0,0,1,30.637,0V57.243a5.1,5.1,0,0,0,5.095,5.094,3.568,3.568,0,0,0,3.563-3.564,3.276,3.276,0,0,0-1.009-2.358c-2.9-2.764-1.7-7.782-.645-11.645l1.39-5.241c3.918,0,3.987,6.83,3.625,8.154a3.255,3.255,0,0,0,.893,3.219,10.933,10.933,0,0,1,3.368,7.871A11.2,11.2,0,0,1,77.689,69.958h-1.67a3.409,3.409,0,0,0-3.408,3.425,3.181,3.181,0,0,0,1.145,2.429,3.081,3.081,0,0,0,2.595.688C85,74.646,83.1,80.641,90.482,79.944c0,0-.238.419-.438.745-3.4,5.538-12.314-.2-16.92,1.7C63.416,86.4,60.035,76.8,57.278,76.8Z" fill="none" stroke="#45413c" stroke-linecap="round" stroke-linejoin="round"></path><path d="M49.800 32.903 A7.476 7.476 0 1 0 64.752 32.903 A7.476 7.476 0 1 0 49.800 32.903 Z" fill="#f0f0f0"></path><path d="M54.175 32.903 A3.101 3.101 0 1 0 60.377 32.903 A3.101 3.101 0 1 0 54.175 32.903 Z" fill="#ff6242" stroke="#45413c" stroke-linecap="round" stroke-linejoin="round"></path><path d="M57.276,50.1a6.082,6.082,0,0,0,6.135-5.116.54.54,0,0,0-.176-.473.606.606,0,0,0-.506-.148,34.52,34.52,0,0,1-10.907,0,.6.6,0,0,0-.505.148.541.541,0,0,0-.177.473A6.082,6.082,0,0,0,57.276,50.1Z" fill="#ffb0ca" stroke="#45413c" stroke-linecap="round" stroke-linejoin="round"></path><path d="M80.600 49.690 A1.118 1.57 0 1 0 82.836 49.690 A1.118 1.57 0 1 0 80.600 49.690 Z" fill="#80ddff" stroke="#45413c" stroke-linecap="round" stroke-linejoin="round"></path><path d="M83.532 56.783 A1.118 1.57 0 1 0 85.768 56.783 A1.118 1.57 0 1 0 83.532 56.783 Z" fill="#80ddff" stroke="#45413c" stroke-linecap="round" stroke-linejoin="round" transform="translate(-12.432 25.716) rotate(-16.109)"></path><path d="M80.693 64.401 A1.57 1.118 0 1 0 83.833 64.401 A1.57 1.118 0 1 0 80.693 64.401 Z" fill="#80ddff" stroke="#45413c" stroke-linecap="round" stroke-linejoin="round" transform="translate(-21.754 74.153) rotate(-43.413)"></path><path d="M49.505,57.061a2.271,2.271,0,0,0-4.424-.727c-.588,1.425-2.257,1.866-2.97-.082a2.275,2.275,0,1,0-2.122,3.086l1.11,3.49v5.247a2.79,2.79,0,0,1-5.579,0,9.152,9.152,0,0,0-9.151-9.151H22.546A9.152,9.152,0,0,0,13.4,68.076v7.28a3.957,3.957,0,0,0,3.852,3.955v7.752a2.254,2.254,0,0,0-.612-.093,2.291,2.291,0,1,0,2.276,2.44h.03a2.285,2.285,0,1,0,3.521-2.068V81.653a1.878,1.878,0,1,1,3.756,0v5.474a2.288,2.288,0,1,0,3.107,2.133,2.291,2.291,0,1,0,2.342-2.285v-18.9a6.642,6.642,0,1,0,13.283,0V62.828a26.789,26.789,0,0,0,2.026-3.515,2.188,2.188,0,0,0,2.528-2.252Z" fill="#6dd627"></path><path d="M35.685,69.021a2.771,2.771,0,0,1-.165-.946,9.152,9.152,0,0,0-9.151-9.151H22.546A9.152,9.152,0,0,0,13.4,68.076v3.4h0a9.151,9.151,0,0,1,9.149-9.091h3.823a9.152,9.152,0,0,1,8.8,6.656Z" fill="#9ceb60"></path><path d="M49.505,57.061a2.271,2.271,0,0,0-4.424-.727c-.588,1.425-2.257,1.866-2.97-.082a2.275,2.275,0,1,0-2.122,3.086l1.11,3.49v5.247a2.79,2.79,0,0,1-5.579,0,9.152,9.152,0,0,0-9.151-9.151H22.546A9.152,9.152,0,0,0,13.4,68.076v7.28a3.957,3.957,0,0,0,3.852,3.955v7.752a2.254,2.254,0,0,0-.612-.093,2.291,2.291,0,1,0,2.276,2.44h.03a2.285,2.285,0,1,0,3.521-2.068V81.653a1.878,1.878,0,1,1,3.756,0v5.474a2.288,2.288,0,1,0,3.107,2.133,2.291,2.291,0,1,0,2.342-2.285v-18.9a6.642,6.642,0,1,0,13.283,0V62.828a26.789,26.789,0,0,0,2.026-3.515,2.188,2.188,0,0,0,2.528-2.252Z" fill="none" stroke="#45413c" stroke-linecap="round" stroke-linejoin="round"></path><path d="M36.794,45.788c0,6.369-10.3,14.666-12.337,14.666S12.12,52.157,12.12,45.788s5.524-10.721,12.337-10.721S36.794,39.418,36.794,45.788Z" fill="#6dd627"></path><path d="M26.452,54.92a2.822,2.822,0,0,1-3.99,0" fill="none" stroke="#45413c" stroke-linecap="round" stroke-linejoin="round"></path><path d="M17.247 79.311L17.247 66.367" fill="none" stroke="#45413c" stroke-linecap="round" stroke-linejoin="round"></path><path d="M36.588,47.424a6.977,6.977,0,0,0,.206-1.636c0-6.37-5.524-10.721-12.337-10.721S12.12,39.418,12.12,45.788a6.91,6.91,0,0,0,.207,1.634c1.041-5.241,6.071-8.687,12.13-8.687S35.547,42.181,36.588,47.424Z" fill="#9ceb60"></path><path d="M36.794,45.788c0,6.369-10.3,14.666-12.337,14.666S12.12,52.157,12.12,45.788s5.524-10.721,12.337-10.721S36.794,39.418,36.794,45.788Z" fill="none" stroke="#45413c" stroke-linecap="round" stroke-linejoin="round"></path><path d="M25.857 46.860 A3.781 2.998 0 1 0 33.419 46.860 A3.781 2.998 0 1 0 25.857 46.860 Z" fill="#656769" transform="translate(-25.623 51.384) rotate(-62.368)"></path><path d="M26.592,46.48a3.187,3.187,0,0,0,1.293,3.729c1.466.768,3.44-.109,4.409-1.959a4.221,4.221,0,0,0,.389-3.081,4.609,4.609,0,0,1-.389,1.071c-.968,1.849-2.943,2.727-4.41,1.959A2.655,2.655,0,0,1,26.592,46.48Z" fill="#525252"></path><path d="M25.857 46.860 A3.781 2.998 0 1 0 33.419 46.860 A3.781 2.998 0 1 0 25.857 46.860 Z" fill="none" stroke="#45413c" stroke-linecap="round" stroke-linejoin="round" transform="translate(-25.623 51.384) rotate(-62.368)"></path><path d="M16.276 46.860 A2.998 3.781 0 1 0 22.272 46.860 A2.998 3.781 0 1 0 16.276 46.860 Z" fill="#656769" transform="translate(-19.535 14.284) rotate(-27.632)"></path><path d="M22.32,46.48a3.186,3.186,0,0,1-1.292,3.729c-1.467.768-3.441-.109-4.409-1.959a4.221,4.221,0,0,1-.39-3.081,4.659,4.659,0,0,0,.39,1.071c.968,1.849,2.942,2.727,4.409,1.959A2.652,2.652,0,0,0,22.32,46.48Z" fill="#525252"></path><path d="M16.276 46.860 A2.998 3.781 0 1 0 22.272 46.860 A2.998 3.781 0 1 0 16.276 46.860 Z" fill="none" stroke="#45413c" stroke-linecap="round" stroke-linejoin="round" transform="translate(-19.535 14.284) rotate(-27.632)"></path><path d="M42.554,19.417c0,1.022-2.825,1.658-3.077,2.6-.26.974,1.86,2.936,1.366,3.789s-3.264.006-3.966.708.157,3.466-.708,3.966-2.815-1.626-3.789-1.366c-.942.252-1.578,3.077-2.6,3.077s-1.658-2.825-2.6-3.077c-.974-.261-2.936,1.86-3.789,1.366s-.006-3.264-.708-3.966-3.466.157-3.966-.708,1.627-2.815,1.366-3.789c-.252-.942-3.076-1.578-3.076-2.6s2.825-1.657,3.076-2.6c.261-.974-1.86-2.936-1.366-3.789s3.264-.006,3.966-.708-.157-3.466.708-3.967,2.815,1.627,3.789,1.367c.942-.252,1.579-3.077,2.6-3.077s1.657,2.825,2.6,3.077c.975.26,2.936-1.86,3.79-1.366s0,3.264.707,3.966,3.466-.157,3.967.708-1.627,2.815-1.367,3.789C39.729,17.76,42.554,18.4,42.554,19.417Z" fill="#ffe500"></path><path d="M23.666 17.585 A1.416 1.416 0 1 0 26.498 17.585 A1.416 1.416 0 1 0 23.666 17.585 Z" fill="#45413c"></path><path d="M33.063 17.585 A1.416 1.416 0 1 0 35.895 17.585 A1.416 1.416 0 1 0 33.063 17.585 Z" fill="#45413c"></path><path d="M19.81,23.105c-.5.964-1.438,2.1-1.092,2.7.5.865,3.264,0,3.966.708s-.158,3.465.708,3.966,2.815-1.627,3.789-1.366c.942.252,1.579,3.077,2.6,3.077s1.657-2.825,2.6-3.077c.974-.26,2.936,1.86,3.789,1.366s.006-3.264.708-3.966,3.466.158,3.966-.708c.346-.6-.588-1.736-1.092-2.7a14.466,14.466,0,0,1-19.941,0Z" fill="#ebcb00"></path><path d="M42.554,19.417c0,1.022-2.825,1.658-3.077,2.6-.26.974,1.86,2.936,1.366,3.789s-3.264.006-3.966.708.157,3.466-.708,3.966-2.815-1.626-3.789-1.366c-.942.252-1.578,3.077-2.6,3.077s-1.658-2.825-2.6-3.077c-.974-.261-2.936,1.86-3.789,1.366s-.006-3.264-.708-3.966-3.466.157-3.966-.708,1.627-2.815,1.366-3.789c-.252-.942-3.076-1.578-3.076-2.6s2.825-1.657,3.076-2.6c.261-.974-1.86-2.936-1.366-3.789s3.264-.006,3.966-.708-.157-3.466.708-3.967,2.815,1.627,3.789,1.367c.942-.252,1.579-3.077,2.6-3.077s1.657,2.825,2.6,3.077c.975.26,2.936-1.86,3.79-1.366s0,3.264.707,3.966,3.466-.157,3.967.708-1.627,2.815-1.367,3.789C39.729,17.76,42.554,18.4,42.554,19.417Z" fill="none" stroke="#45413c" stroke-linecap="round" stroke-linejoin="round"></path><path d="M29.781,23.976a2.98,2.98,0,0,0,3.006-2.507.264.264,0,0,0-.087-.231.3.3,0,0,0-.248-.073,16.86,16.86,0,0,1-5.343,0,.3.3,0,0,0-.248.073.264.264,0,0,0-.086.231A2.98,2.98,0,0,0,29.781,23.976Z" fill="#ffb0ca" stroke="#45413c" stroke-linecap="round" stroke-linejoin="round"></path><path d="M64.659,34.082a7.476,7.476,0,1,0-14.767,0,7.466,7.466,0,0,1,14.767,0Z" fill="#ffffff"></path><path d="M49.800 32.903 A7.476 7.476 0 1 0 64.752 32.903 A7.476 7.476 0 1 0 49.800 32.903 Z" fill="none" stroke="#45413c" stroke-linecap="round" stroke-linejoin="round"></path></g></svg>